<svg version="1.2" xmlns="http://www.w3.org/2000/svg" viewBox="0 0 564 616" width="564" height="616"><defs><linearGradient id="P" gradientUnits="userSpaceOnUse"/><radialGradient id="g1" cx="282.5" cy="341.2" r="118.9" href="#P"><stop offset="0" stop-color="#fff"/><stop offset=".4" stop-color="#fde745"/><stop offset="1" stop-color="#f86521"/></radialGradient><radialGradient id="g2" cx="290.2" cy="341.2" r="120.1" href="#P"><stop offset="0" stop-color="#fff"/><stop offset=".4" stop-color="#fde745"/><stop offset="1" stop-color="#f86521"/></radialGradient></defs><style>.a{fill:#452514}.b{fill:#e57428}.c{fill:#ffd400}.d{opacity:.4;fill:#934c1c}.e{fill:#fff}.f{opacity:.2;fill:#452514}.g{opacity:.7;fill:url(#g1)}.h{opacity:.7;fill:url(#g2)}.i{fill:#71af17}.j{fill:#ebff27}</style><path class="a" d="m294.9 400.3c4.9 7.6 16.9 35.5 12.9 38.4-3.8 2.7-27.1-12.6-28.9-13.8-1.8 1.2-25.4 16.5-29.2 13.8-3.9-2.9 8.6-30.8 13.6-38.4 4.6-6.9 13.9-8.1 15.7-8.3q0.1 0 0.2 0 0.1 0 0.1 0c1.9 0.2 11.2 1.4 15.6 8.3z"/><path fill-rule="evenodd" class="a" d="m552.6 427.9q0 0 0 0c-34.6 103.6-106.9 148.5-110 150.3-7.5 4.5-17.6 3.9-24.6-1.3-25.8 19.2-50.1 24.1-51.6 24.4q-2.2 0.5-4.4 0.5c-3.4 0-6.7-0.8-9.6-2.1-21.3 13.4-47 15.8-62.2 15.8-4.4 0-7.9-0.2-10.1-0.4-10.2 0.8-45 1.9-72.1-15.4-3 1.3-6.3 2.1-9.6 2.1q-2.3 0-4.5-0.5c-1.4-0.3-25.7-5.2-51.1-24.4-7.2 5.2-17.3 5.8-24.7 1.3-3-1.8-74.7-46.7-107.6-150.3-30.5-104.8 17.1-191.7 19.1-195.3 4.2-7.6 12.8-11.8 20.9-10.3q4.5-8.4 10.3-14c27.6-26.6 70.9-37.6 72.7-38.1 2.4-0.6 4.8-0.7 7.1-0.3q7.7-9.4 17.3-14.9c47.6-27.7 77-22 80.2-21.3 5.6 1.3 10.4 5.1 12.4 10.6 1.7 4.4 1.6 9.1-0.3 13.3 4.8-1.8 9.2-2.8 12.7-3.1 3.6-0.3 7.3 0.6 10.4 2.4l10.3 6.2 10.5-6.2c3.1-1.8 6.8-2.7 10.4-2.4 3.5 0.3 7.9 1.3 12.6 3.1-1.8-4.2-1.8-8.9-0.1-13.3 2.2-5.5 7-9.3 12.6-10.6 3.3-0.7 32.8-6.4 79.9 21.3q9.6 5.5 17.1 14.9c2.3-0.4 4.7-0.3 7.1 0.3 1.8 0.5 44.9 11.5 72 38.1q5.8 5.6 10.2 14c8.1-1.5 16.7 2.7 20.7 10.3 1.9 3.6 48.2 90.5 16 195.3zm-219-276.8q28 43.3 11.5 158.2-1.3 8.3-2.4 16.2 14.8-14.3 28.5-30.2l-7.3 22.4c0.9-1.3 28.6-43.1 58.9-51.1 4.2-1.1 8.2-1.8 12-2.3-1.2-33.9-7.9-79.2-33.8-94q-42.5-24.8-67.4-19.2zm186.9 88.7q8.1 60.2-9.2 92 6.3-88-17.8-111.2-23.7-23.2-63.5-33.1 15.8 29.5 12 76.2 20.6-0.9 34.5 5.7l-25.5 10.9q16.3 66.2-7 83.2-23.5 17-54.9 11.2l10.8-6.8c-1 0.3-18.6 5.8-50.2 2.5-4.5-0.5-8.7-1.1-12.7-1.8q-8.7 70.4-6.5 97.5-7.3-46.5-5.1-99.8-18.5-4.3-29.8-9.6 10.4-1.8 29.8-16.2 1-0.7 1.9-1.5 0.4-3.6 0.8-7.2c8-65.9 11.9-116 3.4-136.9q-8.3-21-28.5-22.6l-19.5 11.4-19.4-11.4q-20.2 1.6-28.9 22.6c-8.8 20.9-5.6 71 1.3 136.9q0.6 5.4 1 10.8 17.3 12.5 26.7 14.1-9.6 4.5-25.5 8.5 1.5 53.7-6.7 100.9 2.6-27.3-5-98.3c-5.3 1-11.1 1.9-17.2 2.6-31.6 3.3-49.1-2.2-50.2-2.5l10.8 6.8q-31.6 5.8-54.8-11.2-23-17-5.5-83.2l-25.3-10.9q16-7.5 38.9-5.4-3.2-46.9 13.2-76.5-39.9 9.9-64 33.1-24.4 23.2-19.7 111.2-16.6-31.8-7.6-92-45.8 82.7-16.4 182 32 99.3 101 141.6c-33-42.1-38.3-96.2-39-117.8q-3.4-12.7-4.8-22-4.2 25.6-0.6 58.4c-28-32.7-45.5-88.9-50.2-106q10.5 35.6 40.7 66.6-15-32.3-16.5-91.6c11.8 45.6 55.3 102.6 56.7 104.3q-8.4-28.1-4.3-58.3 18.8 46.6 49.4 78.3-5.8-20.9-0.7-44c4.3 18 10.5 31.7 16.9 42q0.3-42.9 6.4-78 1.3 47.5 6.5 94.7 8 8.3 14.1 11.4-9.9-32.7-0.7-59.3 7.8 31.2 41 51.7 7.9-33.8 34-43.5 25.8 9.7 33.1 43.5 33.6-20.5 42-51.7 8.7 26.6-1.8 59.3 9.1-4.6 19.7-17.4 0 0 0 0 5.4-45.2 7.3-88.7 4.9 30.8 5.1 70c4.9-9.1 9.5-20.3 13-34q4.7 23.1-1.3 44 31-31.7 50.7-78.3 3.5 30.2-5.3 58.3c1.4-1.7 45.9-58.7 58.4-104.3q-2.4 59.3-18 91.6 30.6-31 41.8-66.6c-5 17.1-23.4 73.3-52 106q4.2-32.8 0.4-58.4-9.9 56.5-35.6 79.5l-4.8-47.6q-3.9 44.5-42 66.4l-0.6-23q-2.2 3.3-6.4 8.2c-2.7 27.3-8.9 54.9-21.1 76.8q44-8.6 72.7-52.9 27.9-44.3 37.4-95 1.8 73.5-41.1 127.4 69.7-42.3 103.3-141.6 31-99.3-13.5-182zm-389.6 25.1q3.7 0.7 7.6 1.7c30.2 8 57.2 49.8 58 51.1l-6.8-22.4q16.5 19.7 32.9 34.9-1.3-10-2.7-20.9-14.7-114.9 13.9-158.2-24.7-5.6-67.7 19.2c-26.2 15-33.5 60.7-35.2 94.6zm100.4 59.9c-0.4 2.2-3.1 14-8.2 12.3q-5.6-1.9-22.3-21l6.5 16.8-8.8-8.6 1.2 9.7q-10.7-18.9-22.9-33.8-12.1-14.9-41.3-22.9c-5.1 20.8 4.7 47.7 5.2 49.1q-16.8-17.4-23.1-57l-11.7 0.8c1.6 0 11.6 0.7 10.1 18.4q-1.5 19 7.9 53.3-9.1-9.1-11.5-30.6-7.7 30.4 3.5 44.8 11.3 14.2 44.6 15.4l-20.7-11.4c1.1 0.2 19.5 5.2 38.5 4.2q19.5-1 39.3-7.2l-7.1 7.1q31 1 41.3-7.1-11.5-5.9-17.4-12.1c-5.3-5.6-3.4-17.9-3.1-20.2zm-32.3 259.1c-11.2-20.3-16.9-45.6-19.4-71q-7.5-7.8-11.6-14l-1 23q-37.7-21.9-40.8-66.4l-5.6 47.6c-8.3-7.5-14.8-18.5-19.9-30 5.6 17.2 14.1 38.2 26.3 57.9q28.1 44.3 72 52.9zm167.4-60.8c-5.9 4.8-12.8 9.6-20.6 13.4l-2.8-28q-13.7 18-32.6 29.9-19 11.9-31.9-21.5-13.5 33.4-32.3 21.5-18.6-11.9-32.1-29.9l-3.3 28c-5.4-2.7-10.4-5.9-15-9.2 4.5 25.6 10.5 46.5 18.4 53.3q25 21.5 66 16.6 40.9 4.9 66.3-16.6c8.4-7.1 15-30.1 19.9-57.5zm-112.5-2c2.1-2.7 4.4-6.7 5.9-10.1 2.9-7.2 10.4-11.9 18.9-11.9 8.4 0 15.9 4.8 18.6 11.9 1.4 3.4 3.7 7.4 5.7 10.1 4.3-3.1 8.2-6.5 11.5-9.7-3.3 0.4-6.7 0-9.8-1.2-6.2-2.3-10.7-7.2-11.9-13-2.7-12.9-8.9-20.8-13.9-25.3-5.1 4.5-11.4 12.4-14.4 25.3-1.3 5.8-5.8 10.7-12.1 13-3.2 1.2-6.6 1.6-9.9 1.2 3.3 3.2 7.2 6.6 11.4 9.7zm185.5-179.2q10-34.3 8.7-53.3c-1.1-17.7 8.9-18.4 10.5-18.4l-11.7-0.8q-7 39.6-24.1 57c0.6-1.4 10.8-28.3 6.1-49.1q-29.4 8-41.7 22.9-12.5 14.9-23.5 33.8l1.4-9.7-8.9 8.6 6.7-16.8q-17 19.1-22.6 21c-5.1 1.7-7.6-10.1-8-12.3 0.3 2.3 1.9 14.6-3.5 20.2q-5.9 6.2-17.5 12.1 10.1 8.1 41.1 7.1l-7-7.1q19.8 6.2 39.3 7.2c18.9 1 37.4-4 38.5-4.2l-20.8 11.4q33.2-1.2 44.7-15.4 11.5-14.4 4.3-44.8-2.8 21.5-12 30.6z"/><path class="b" d="m199 583.9q-43.9-8.6-72-52.9c-12.2-19.7-20.7-40.7-26.3-57.9 5.1 11.5 11.7 22.5 19.9 30l5.6-47.6q3.1 44.5 40.8 66.4l1.1-23q4 6.2 11.5 14c2.5 25.4 8.2 50.7 19.4 71z"/><path fill-rule="evenodd" class="b" d="m545.1 352.9c-0.2 21.3-3.3 44.6-11.1 68.9-8.5 25.8-19.4 47.7-31 66-4.4 6.9-8.8 13.2-13.2 19.1-29.6 38.5-58.4 56.1-59.1 56.5 4.5-5.6 8.6-11.4 12.1-17.3 10.2-16.7 16.8-34.4 21.1-50.5q0-0.2 0.1-0.4 1.1-4.4 2.1-8.7 0 0 0 0 0.2-0.9 0.4-1.7 0.8-3.7 1.4-7.3 0 0 0 0 0.1-0.6 0.2-1.2 4.1-23.5 3.7-40.3-2.6 14.4-9.3 34.5c-2.1 6.3-4.6 13.2-7.5 20.4-3.3 8-7.2 16.4-11.7 24.8-2.7 5.1-5.7 10.3-8.9 15.3q-28.7 44.3-72.7 52.9c3.2-5.8 6.1-12 8.5-18.4 6.8-18.1 10.6-38.3 12.6-58.4q4.2-4.9 6.4-8.2l0.6 23q38.1-21.9 42-66.4l4.8 47.6c4.4-4 8.4-8.9 12-14.4 3.9-6.1 7.3-13 10.2-19.8q9.5-22.5 13.4-45.3c2.6 17.4 1.5 38.1 0.5 49.6q-0.4 5.4-0.9 8.8c3-3.4 5.9-7 8.6-10.8q2.2-3.1 4.4-6.3c2.4-3.6 4.7-7.3 6.8-11.1 17.4-30.4 28.5-65 32.2-77.8q-11.1 35.6-41.8 66.6 15.6-32.3 18-91.6c-12.5 45.6-57 102.6-58.4 104.3q8.8-28.1 5.3-58.3-19.7 46.6-50.7 78.3 6-20.9 1.4-44c-3.6 13.7-8.2 24.9-13.1 34q-0.2-39.2-5.1-70-1.9 43.5-7.3 88.7 0 0 0 0c-6.1 7.5-11.8 12.1-15.4 14.7q-2.7 1.9-4.3 2.7 10.6-32.7 1.8-59.3-8.4 31.2-42 51.7-7.2-33.8-33.1-43.5-26.1 9.7-33.9 43.5-21.4-13.2-33.9-34.4c-3.1-5.3-5.7-11.1-7.2-17.3q-2.8 8-3.6 20.6 0 0 0 0c-0.7 9.4-0.3 21.3 3.1 34.3q0.6 2.2 1.2 4.4-6.1-3.1-14.1-11.4-0.6-5.7-1.2-11.3c-0.8-8.2-1.5-16.4-2.1-24.1q0 0 0 0-0.4-4.7-0.7-9.2 0 0 0 0-1.9-28.5-2.5-50.1-4 23.1-5.7 54.6c-0.4 7.4-0.6 15.3-0.7 23.4-6.4-10.3-12.6-24-16.9-42q-5.1 23.1 0.7 44-9.6-9.8-21.4-26.6c-6.5-9.5-13.8-21.2-20.4-34.6-2.7-5.4-5.2-11.1-7.6-17.1q-1.1 8.6-1 20.8c0.2 10.6 1.3 23.9 5.1 36.9q0.1 0.3 0.2 0.6-0.1-0.1-0.6-0.7c-1.8-2.4-7.6-10-14.8-20.5-12.7-19.1-30.1-47.9-38.8-74.5q-1.4-4.4-2.5-8.6 0.1 4.2 0.5 11c1.2 18.8 5 57 16 80.6q-30.1-31-40.7-66.6c4.7 17.1 22.2 73.3 50.2 106q-3.6-32.8 0.6-58.4 1.4 9.3 4.8 22c0.7 21.6 6 75.7 39 117.8-1.1-0.7-69.2-43.1-101-141.6-4.9-16.1-7.8-31.7-9.1-46.6-0.7-7.6-0.9-14.9-0.9-22.1q0.5-66 26.4-113.3-9 60.2 7.6 92-4.7-88 19.7-111.2 0.5-0.4 0.9-0.9c9.5-8.8 21.2-15.6 31.9-20.7 16.4-7.8 30.6-11.4 31.1-11.5-0.3 0.7-15 28-13.4 71.3q0.1 2.5 0.3 5.2c-19.9-1.8-34.7 3.6-38.1 5.1q-0.6 0.2-0.8 0.3l13.9 6 11.4 4.9q-17.5 66.2 5.5 83.2c6.7 5 14.2 8 21.4 9.8 4.9 1.2 9.8 1.9 14.1 2.2q11.1 0.7 19.3-0.8l-10.8-6.8c1.1 0.3 18.6 5.8 50.2 2.5 6.1-0.7 11.9-1.6 17.2-2.6q7.7 71 5 98.3 8.2-47.1 6.7-100.9 3.8-0.9 7.1-1.9 0.9-0.3 1.7-0.5 10.6-3.3 16.7-6.1-3.2-0.6-9.2-3.5c-2.6-1.2-5.8-2.9-9.5-5.2q-2.8-1.8-6-4-1-0.7-2-1.4-0.3-4.2-0.8-8.3-0.1-1.3-0.2-2.5-1.3-11.8-2.3-22.9c-3.6-37.6-5.4-68.8-3.7-90.6 0.8-9.8 2.3-17.7 4.7-23.4q8.7-21 28.9-22.6l19.4 11.4 11.7-6.8 7.9-4.6q4.2 0.3 9.6 2.7c6.3 2.8 14.3 8.5 18.8 19.9 5.8 14.2 5.8 42.1 2.8 79.3-0.9 11.2-2.2 23.2-3.6 35.9q-1.2 10.5-2.6 21.7-0.4 3.6-0.8 7.2-0.9 0.8-1.9 1.4c-6.2 4.7-11.5 8-15.8 10.4q0 0-0.1 0-0.8 0.5-1.6 0.9-8.1 4.3-12.3 5 3.6 1.7 10 3.9c5 1.8 11.7 3.8 19.8 5.7-1.2 30.1 0.5 58 2.3 76.6 1.3 13.5 2.6 22 2.8 23.1-0.1-2-1.9-29.7 6.5-97.4 4 0.7 8.2 1.3 12.7 1.8 6.2 0.6 11.8 0.9 16.9 1 7.3 0.1 13.4-0.2 18.3-0.7 3-0.4 5.6-0.8 7.7-1.1 4.5-0.8 6.9-1.6 7.3-1.7l-7.5 4.8-3.3 2q1.1 0.3 3.1 0.5c3.6 0.4 9.8 0.8 17.3 0.2 10.5-0.9 23.4-3.8 34.6-11.9 18.8-13.7 11.7-59.5 8.3-76.6q0-0.1 0-0.1c-0.4-2-0.7-3.6-1-4.7q-0.2-1.2-0.4-1.8l2.7-1.1 10.8-4.6 2.4-1.1 9.6-4.1q0 0-0.1 0c-0.3-0.2-2.7-1.2-6.6-2.4-6-1.8-15.7-3.8-27.7-3.3q0.2-2.5 0.3-4.8c0.3-6.4 0.3-12.5 0-18.1q-0.2-4.5-0.6-8.7c-0.8-7.4-2-14-3.3-19.8-1-4.4-2.1-8.2-3.2-11.5-2.7-8.3-5.1-13-5.3-13.3 0.9 0.2 40.1 10.2 63.5 33.1 13.9 13.4 17.7 48.4 18.5 75.6q0.5 19.9-0.7 35.6c7.1-12.9 9.9-30.4 10.8-46.8q1.2-23.9-1.6-45.2 19.9 37.4 23.9 92.2c0.5 6.7 0.8 13.7 0.7 20.9zm-249.8 47.4c-4.4-6.9-13.7-8.1-15.6-8.3q0 0-0.1 0-0.1 0-0.2 0c-1.8 0.2-11.1 1.4-15.7 8.3-5 7.6-17.5 35.5-13.6 38.4 3.8 2.7 27.4-12.7 29.2-13.8 1.8 1.1 25.1 16.5 28.9 13.8 4-2.9-8-30.8-12.9-38.4z"/><path class="b" d="m366.4 523.1c-3 16.7-6.6 31.8-10.9 42.7-2.7 6.9-5.7 12-9 14.8-10.4 8.9-23.6 13.3-35.4 15.3q-16.8 3-30.9 1.3-3.2 0.4-8.3 0.5h-0.1c-13.1 0.2-39-1.5-57-16.6h-0.1q-0.3-0.2-0.5-0.5c-2.1-1.7-4-4.5-5.8-8q0 0 0 0c-3.1-6-5.8-14.4-8.2-24.2q0 0 0-0.1-0.1 0-0.1 0 0 0 0-0.1c-1.5-6.4-3-13.5-4.3-20.9 4.6 3.3 9.6 6.5 15 9.2l3.3-28q13.5 18 32.1 29.9 18.8 11.9 32.3-21.5 12.9 33.4 31.9 21.5c3.8-2.3 7.4-5 10.7-7.6q0 0 0 0 0 0 0-0.1 0 0 0 0 13.1-10.7 21.9-22.2l2.8 28q0.9-0.4 1.8-0.9c7.1-3.7 13.4-8 18.8-12.5z"/><path class="b" d="m434.5 258.9q0.2 2.7 0.3 5.4-3.5 0.4-7.1 1.1-0.6 0.2-1.3 0.3-1.8 0.4-3.6 0.9-1.4 0.4-2.8 0.8c-4 1.4-7.9 3.3-11.7 5.5-4.7 2.8-9.3 6.2-13.5 9.9-13.8 11.8-24.7 26.2-29 32.2q-0.5 0.7-1 1.3-0.8 1.2-0.9 1.4l1-3.1 1-3.1 5.3-16.2q-13.7 15.9-28.5 30.2 1-7.1 2.1-14.6 0.2-0.8 0.3-1.6c7.7-52.5 5.8-90 1.6-115.3-1.9-11.6-4.3-20.6-6.5-27.4q-3.5-10.7-6.6-15.5 24.9-5.6 67.4 19.2c21.3 12.2 29.6 45.1 32.5 75.2 0.5 4.6 0.8 9.1 1 13.4z"/><path class="b" d="m222.4 328.4q0.1 0.9 0.2 1.8-16.3-15.2-32.9-34.9l6.8 22.4c-0.6-1-15.2-23.4-34.7-38.6-5.5-4.3-11.3-8-17.3-10.5q-0.9-0.4-1.9-0.7-2-0.8-4.1-1.3-3.9-1-7.6-1.7 0.1-2.9 0.3-5.9c1.9-28.3 8-62.7 25.2-80.9 2.9-3.1 6.2-5.7 9.7-7.8q43-24.8 67.7-19.2-3.7 5.8-7.9 18.8c-7.2 22.5-15.5 66.5-6 139.4q0.1 1.1 0.3 2.2 1.2 8.7 2.2 16.9z"/><path class="c" d="m224 312.3q0.5 10.9 1 17.9-1-0.5-2.6-1.8c-3.5-2.8-9.9-9.5-14.5-23.4-1.6-4.8-3-10.5-4-17.2-4.8-34.6 8.5-91.9 0.8-105.3-0.4-0.6-0.8-1.1-1.3-1.6-7.5-7.6-32.5-5-47-2.8 2.9-3.1 6.2-5.7 9.7-7.8q43-24.8 67.7-19.2-3.7 5.8-7.9 18.8c-7.2 22.5-15.5 66.5-6 139.4q0.1 1.1 0.3 2.2 2.1 0.6 3.8 0.8z"/><path class="c" d="m327.7 442.9q-1.9 14.1-3.7 23.5-10-25.1-12.2-60.6c-1.5-25.1-4.6-39.1-6.2-45.2 5 1.8 11.7 3.8 19.8 5.7-1.2 30.1 0.5 58 2.3 76.6z"/><path class="c" d="m334.3 274.2c-0.9 11.2-2.2 23.2-3.6 35.9q-1.2 10.5-2.6 21.7-0.4 3.6-0.8 7.2-0.9 0.8-1.9 1.4c-6.2 4.7-11.5 8-15.8 10.4q0 0-0.1 0-0.8 0.5-1.6 0.9c3.8-7.2 9.7-22.9 12.5-53.8 0.6-6.1 0.7-12.2 0.4-18.1-1-23.6-7.6-44.8-12.7-58.1q-3.5-9-6.3-14.5-18.3 1.1-29.4-7.2c-1-0.7-1.9-1.5-2.7-2.4-10.3-10.8-28.5-14-39.2 20.7 0.8-9.8 2.3-17.7 4.7-23.4q8.7-21 28.9-22.6l19.4 11.4 11.7-6.8 7.9-4.6q4.2 0.3 9.6 2.7c6.3 2.8 14.3 8.5 18.8 19.9 5.8 14.2 5.8 42.1 2.8 79.3z"/><path class="c" d="m366.4 523.1c-4.9 27.4-11.5 50.4-19.9 57.5q-25.4 21.5-66.3 16.6-3.2 0.4-8.3 0.5c22-5.9 52-18.9 69.2-47.8 2.4-4 4.5-8.8 6.5-14.3 7.1-3.7 13.4-8 18.8-12.5z"/><path class="c" d="m392.6 369.6c4.5-0.8 6.9-1.6 7.3-1.7l-7.5 4.8q0.1-1.5 0.2-3.1z"/><path class="c" d="m346.7 194c-1.9-11.6-4.3-20.6-6.5-27.4q-3.5-10.7-6.6-15.5 24.9-5.6 67.4 19.2c21.3 12.2 29.6 45.1 32.5 75.2 0.5 4.6 0.8 9.1 1 13.4q0.2 2.7 0.3 5.4-3.5 0.4-7.1 1.1-0.6 0.2-1.3 0.3-1.8 0.4-3.6 0.9-1.4 0.4-2.8 0.8c-4 1.4-7.9 3.3-11.7 5.5-4.7 2.8-9.3 6.2-13.5 9.9q-0.2-5.3-0.6-10.3c-0.5-8.5-1.3-16.2-2.5-22.9q-0.6-3.3-1.3-6.1 0 0 0-0.1 0 0 0 0 0 0 0 0 0-0.3-0.1-0.5c-1.4-5.8-3.4-10.9-5.9-15.5-2.1-4-4.5-7.6-7.1-10.7q0-0.1 0-0.1c-10.3-12.9-23.4-19.6-30.6-22.6z"/><path class="c" d="m544.4 332c0.5 6.7 0.8 13.7 0.7 20.9-0.2 21.3-3.3 44.6-11.1 68.9-8.5 25.8-19.4 47.7-31 66-4.4 6.9-8.8 13.2-13.2 19.1-29.6 38.5-58.4 56.1-59.1 56.5 4.5-5.6 8.6-11.4 12.1-17.3 10.2-16.7 16.8-34.4 21.1-50.5q0-0.2 0.1-0.4 1.1-4.4 2.1-8.7 0 0 0 0 0.2-0.9 0.4-1.7 0.8-3.7 1.4-7.3 0 0 0 0 0.1-0.6 0.2-1.2 4.1-23.5 3.7-40.3-2.6 14.4-9.3 34.5c-2.1 6.3-4.6 13.2-7.5 20.4-3.3 8-7.2 16.4-11.7 24.8-2.7 5.1-5.7 10.3-8.9 15.3q-28.7 44.3-72.7 52.9c3.2-5.8 6.1-12 8.5-18.4 6.8-18.1 10.6-38.3 12.6-58.4q4.2-4.9 6.4-8.2l0.6 23q38.1-21.9 42-66.4l4.8 47.6c4.4-4 8.4-8.9 12-14.4 3.9-6.1 7.3-13 10.2-19.8q9.5-22.5 13.4-45.3c2.6 17.4 1.5 38.1 0.5 49.6q-0.4 5.4-0.9 8.8c3-3.4 5.9-7 8.6-10.8q2.2-3.1 4.4-6.3c2.4-3.6 4.7-7.3 6.8-11.1 17.4-30.4 28.5-65 32.2-77.8q-11.2 35.6-41.8 66.6 15.6-32.3 18-91.6c-12.5 45.6-57 102.6-58.4 104.3q8.8-28.1 5.3-58.3-19.7 46.6-50.7 78.3 6-20.9 1.4-44c-3.6 13.7-8.2 24.9-13.1 34q-0.2-39.2-5.1-70-1.9 43.5-7.3 88.7 0 0 0 0c-6.1 7.5-11.8 12.1-15.4 14.7 6.8-39.8 9.2-90.3 9.9-127.3 7.3 0.1 13.4-0.2 18.3-0.7l6.3 16.9q0.4-4.7 1-12.4c3.6 0.4 9.8 0.8 17.3 0.2 10.5-0.9 23.4-3.8 34.6-11.9 18.8-13.7 11.7-59.5 8.3-76.6q0-0.1 0-0.1c-0.4-2-0.7-3.6-1-4.7q-0.2-1.2-0.4-1.8l2.7-1.1 10.8-4.6 2.4-1.1 9.6-4.1q0 0-0.1 0c-0.3-0.2-2.7-1.2-6.6-2.4-6-1.8-15.7-3.8-27.7-3.3q0.2-2.5 0.3-4.8c0.3-6.4 0.3-12.5 0-18.1q-0.2-4.5-0.6-8.7c-0.8-7.4-2-14-3.3-19.8-1-4.4-2.1-8.2-3.2-11.5-2.7-8.3-5.1-13-5.3-13.3 0.9 0.2 40 10.2 63.5 33.1 13.9 13.4 17.7 48.4 18.5 75.6 2-7.8 3.5-16.7 4.2-26.8q2.8 5.4 5.9 15.6 1.2-23.9-1.6-45.2 19.9 37.4 23.9 92.2z"/><path class="c" d="m65.2 236.8c0.5-6.3 6.1-11.3 12.4-11.3 6.4 0 11.1 5 10.6 11.3-0.4 6.2-6 11.3-12.4 11.3-6.4 0-11.2-5.1-10.6-11.3z"/><path class="c" d="m103.6 217c0.5-6.2 5.9-11.3 12.2-11.3 6.3 0 11.1 5.1 10.8 11.3-0.4 6.3-5.9 11.3-12.3 11.3-6.3 0-11.1-5-10.7-11.3z"/><path class="c" d="m165.3 259.9c3.7 3.5 3.6 9.5-0.2 13.3-3.8 3.8-10 4-13.7 0.4-3.7-3.5-3.6-9.4 0.2-13.2 3.8-3.8 9.9-4 13.7-0.5z"/><path class="c" d="m133.5 483.1c-2.3 0.7-4.8 0.8-7.2 0.1q-1.8-0.5-3.1-1.5l2-17.6q1.1-0.5 2.2-0.9c1 5.1 2.8 12.2 6.1 19.9z"/><path class="c" d="m104.5 416.8c-4.3 2.8-10 2-12.8-1.7-2.8-3.8-1.6-9.2 2.7-12 4.2-2.8 9.9-2 12.7 1.8 2.8 3.7 1.7 9.1-2.6 11.9z"/><path class="c" d="m212.7 458.2q-0.7 0.7-1.4 1.2c-3.1-5.3-5.7-11.1-7.2-17.3q-2.8 8-3.6 20.6 0 0 0 0c-3.6-0.1-7.1-1.4-9.8-3.8-1.4-1.2-2.5-2.7-3.3-4.3q0 0 0 0-0.4-4.7-0.7-9.2 0 0 0 0c0.7-2.3 2-4.5 4-6.4 6-5.7 15.7-6 21.8-0.7 6 5.3 6.2 14.2 0.2 19.9z"/><path class="b" d="m403.8 430.1c-4.6-4.8-4.2-11.9 0.8-16 5.1-4 12.8-3.5 17.4 1.3 4.6 4.7 4.2 11.9-0.8 15.9-5 4.1-12.8 3.5-17.4-1.2z"/><path class="b" d="m467.2 280.9c4-2.3 9.5-1 12.2 3.1 2.7 4.1 1.6 9.3-2.5 11.7-4.1 2.3-9.6 1-12.3-3.1-2.7-4.1-1.5-9.3 2.6-11.7z"/><path class="b" d="m470.3 264.7q-0.2 1.1-0.5 2.3-0.1 0.5-0.3 1.1-0.1 0.5-0.3 1 0 0.1-0.1 0.3-0.8 2.1-2.2 4.1-0.8 1.2-1.9 2.3-0.6 0.7-1.3 1.3c-3.4 3-7.6 4.6-11.9 5q-0.2 0-0.4 0-0.2 0-0.5 0-1.3 0.1-2.7 0-2-0.1-4-0.6c-3-0.8-5.9-2.1-8.5-4.1q0 0 0 0c1-2.6 1.9-5.4 2.7-8.3 0.9-3.2 1.6-6.7 2.1-10.3 0.7-5.5 0.9-11.3 0.4-17.6q0.8-0.2 1.5-0.4c7.6-1.9 16.2 0.4 22 6.7 4.6 4.9 6.6 11.2 5.9 17.2z"/><path class="c" d="m291.2 212.3c4.4 4.1 4.6 10.9 0.4 15.3-4.1 4.4-11.2 4.7-15.6 0.6-4.4-4.1-4.6-11-0.4-15.4 4.2-4.4 11.1-4.6 15.6-0.5z"/><path class="c" d="m255.8 266.3c5.6 5.1 5.8 13.6 0.5 19-5.4 5.5-14.3 5.8-19.9 0.7-5.6-5.1-5.7-13.6-0.3-19 5.4-5.5 14.1-5.8 19.7-0.7z"/><path class="c" d="m209.3 547.2q-0.1 0-0.1 0.1-0.8 0.6-1.7 0.9c-2.5 1.1-5.4 0.8-7.4-0.8q-0.1 0-0.2-0.1-0.8-3.4-1.6-7 0.6-1.2 1.8-2.1c1.5-1.3 3.5-1.8 5.4-1.6 1.6 0.1 3.2 0.7 4.4 1.9 2.5 2.5 2.3 6.4-0.6 8.7z"/><path class="c" d="m231.8 551.6c5.6-4.4 14.1-4.2 19.1 0.7 5 4.8 4.6 12.3-1 16.8-5.6 4.5-14.2 4.2-19.2-0.6-4.9-4.8-4.4-12.4 1.1-16.9z"/><path class="d" d="m249 371.7c-0.3-0.7-1.5-3.6-3.2-8.4q0.9-0.3 1.7-0.5c0.8 5 1.4 8.2 1.5 8.9z"/><path class="d" d="m312.7 175c-3.7 1.3-8.2 3-13.1 5.4-8.5 4.3-18.4 10.5-27.2 19.6-8.3 8.4-15.8 19.3-20.7 33.2-3.1 8.5-5.2 17.9-6.6 27.7-1.8 11.7-2.5 23.9-2.6 35.8q0 0 0 0c-0.1 13.8 0.7 27 1.7 38.5 0.4 4.6 0.8 8.9 1.3 12.8q-2.8-1.8-6-4-1.4-4.6-2.8-9.7-0.1-1.3-0.2-2.5-1.3-11.8-2.3-22.9c-3.6-37.6-5.4-68.8-3.7-90.6 0.8-9.8 2.3-17.7 4.7-23.4q8.7-21 28.9-22.6l19.4 11.4 11.7-6.8 7.9-4.6q4.2 0.3 9.6 2.7z"/><path class="d" d="m136.1 367.6c-7.9-2.3-15.7-5.9-20.2-11.5-7.1-9.1-6.6-24.6-5.3-34.8q0.8-5.9 1.8-10 0.4 3.4 1.4 8.1c1.6 7 4.6 17 10.1 22.5-0.2-0.6-3.3-11.9-5.6-25-1.7-9.7-2.9-20.4-2.2-28.3 1.4-17.7-8.6-18.4-10.2-18.4l11.7-0.8q3.8 23.7 13.2 42.5 1.5 2.9 3.2 5.7c-1.2 18.1-0.2 34.9 2.1 50z"/><path class="d" d="m135.2 304.6c-1.4-8.6-1.9-18.5 0.3-27.3q1.6 0.4 4.3 1.3c-2.1 8.9-3.6 17.6-4.6 26z"/><path class="d" d="m160.9 431.3q-5.1 23.1 0.7 44-9.6-9.8-21.4-26.6c-6.5-9.5-13.8-21.2-20.4-34.6-2.7-5.4-5.2-11.1-7.6-17.1q-1.2 8.6-1 20.8c0.2 10.6 1.3 23.9 5.1 36.9q0.1 0.3 0.2 0.6-0.1-0.1-0.6-0.7c-1.8-2.4-7.6-10-14.8-20.5-12.8-19.1-30.1-47.9-38.8-74.5q-1.4-4.3-2.5-8.6 0.1 4.2 0.5 11c1.2 18.8 5 57 16 80.6q-30.1-31-40.7-66.6c4.7 17.1 22.2 73.3 50.2 106q-3.6-32.8 0.6-58.4 1.4 9.3 4.8 22c0.7 21.6 6 75.7 39 117.8-1.1-0.7-69.2-43.1-101-141.6-4.9-16.1-7.8-31.7-9.1-46.6-0.7-7.6-0.9-14.9-0.9-22.1q0.5-66 26.4-113.3-9 60.2 7.6 92-4.7-88 19.7-111.2 0.5-0.5 0.9-0.9c9.5-8.8 21.2-15.6 31.9-20.7 16.4-7.8 30.6-11.4 31.1-11.5-0.3 0.7-15 28-13.4 71.3q0.1 2.5 0.3 5.2c-19.9-1.8-34.7 3.6-38.1 5.1q-0.6 0.2-0.8 0.3l13.9 6 11.4 4.9q-17.5 66.2 5.5 83.2c6.7 5 14.2 8 21.4 9.8q0.2 1.3 0.5 2.5 7.2 38.5 21.5 63.2l2.5-11.8 2.4-11.6 8.3-40q-2.8 38.4 6.3 74.3c-0.4 7.4-0.6 15.3-0.7 23.4-6.4-10.3-12.6-24-16.9-42z"/><path class="d" d="m233.8 151.1q-3.7 5.8-7.9 18.8c-5.8 2-13.7 5.5-22.5 11-3 1.9-6.1 4.1-9.2 6.5-9.3 7.2-19.1 16.8-28 29.6q0 0 0 0c-8.2 11.8-15.7 26.2-21.5 43.9q-1.1 3.4-2.1 7-2-0.8-4.1-1.3-3.9-1-7.6-1.7 0.1-2.9 0.3-5.9c1.9-28.3 8-62.7 25.2-80.9 2.9-3.1 6.2-5.7 9.7-7.8q43-24.8 67.7-19.2z"/><path class="d" d="m199 583.9q-43.9-8.6-72-52.9c-12.2-19.7-20.7-40.7-26.3-57.9 5.1 11.5 11.7 22.5 19.9 30l2.6-21.4 2-17.6 1-8.6q0.2 3 1.2 7.7c1 5.1 2.8 12.2 6.1 19.9 5.7 13.3 15.8 28.6 33.5 38.8l1.1-23q4 6.2 11.5 14c2.5 25.4 8.2 50.7 19.4 71z"/><path class="d" d="m190.7 490q-0.7-5.7-1.2-11.3c3.8 6.9 8.5 13.2 14.1 18.3q0.6 2.2 1.2 4.4-6.1-3.1-14.1-11.4z"/><path class="d" d="m208.4 572.6q2.6 4.3 6.3 8.5-0.3-0.2-0.5-0.5c-2.1-1.7-4-4.5-5.8-8z"/><path class="d" d="m321.1 530.8c-8.4 10.5-20.9 21.1-39.7 29.6-11.1 4.9-21.1 7-29.9 7.2-9.3 0.2-17.2-1.8-24-4.7-8.8-4-15.5-9.7-20-14.7q-5-5.5-7.4-10-0.5 3.6 0 9.2 0 0.4 0 0.8-0.1-0.4-0.2-0.9-0.8-3.4-1.6-7-1.3-6.2-2.5-13c3.1 2.3 6.4 4.4 9.9 6.5q2.5 1.4 5.1 2.7l1.7-14.2 1.6-13.8q2.8 3.8 7.7 9.1c5.7 6.2 14.3 14.4 24.4 20.8q1.1 0.7 2.2 1.2 17.6 8.1 30.1-22.7 12.9 33.4 31.9 21.5c3.8-2.3 7.4-5 10.7-7.6z"/><path class="e" d="m299.6 180.4q-2.2-2-4.4-3.5l7.9-4.6q4.2 0.3 9.6 2.7c6.3 2.8 14.3 8.5 18.8 19.9 5.8 14.2 5.8 42.1 2.8 79.3q-0.9-6.3-2.2-13.6c-1.4-7.6-3.1-16-5.3-25.2q-0.6-2.1-1.1-4.3c-7-27.8-17.2-42.7-26.1-50.7z"/><path class="e" d="m335.8 317.8c0-0.5 0.3-2.3 0.5-5.4q0.4 0 0.8 0c-0.7 3-1.2 4.9-1.3 5.4z"/><path class="e" d="m435.7 277.4c-1.7 4.5-3.6 8.5-5.6 11.9-4.7 8.3-9.2 13.2-9.5 13.5 0.1-0.5 2.7-10.3 4.6-24.4q0.4-3.2 0.7-6.7 0-0.2 0.1-0.4 0.2-2.7 0.4-5.6 0.2-3 0.4-6.2c0.8-21.5-1.9-46.5-15-63.2-20-25.7-54.6-29.5-71.6-29.7q-3.5-10.7-6.6-15.5 24.9-5.6 67.4 19.2c21.3 12.2 29.6 45.1 32.5 75.2-4 3.8-6.2 8.8-6.4 14-0.1 2 0.1 4 0.6 5.9 0.5 1.8 1.1 3.5 2 5.1q0.1 0.1 0.1 0.2 1.3 2.2 3.1 4.1 1.3 1.4 2.8 2.6z"/><path class="e" d="m435.3 200.8c-2.7-8.3-5.1-13-5.3-13.3 0.9 0.2 40 10.2 63.5 33.1 13.9 13.4 17.7 48.4 18.5 75.6-8.5 32.4-25.4 46-26 46.4 0.2-0.6 15.7-45.1 6.7-88.4-7.4-36-44.6-49.7-57.4-53.4z"/><path class="e" d="m355.5 565.8c-2.7 6.9-5.7 12-9 14.8-10.4 8.9-23.6 13.3-35.4 15.3 3.6-2 8.1-4.3 13.6-7 14.8-7.2 24.5-15.3 30.8-23.1z"/><path class="e" d="m434.4 531q-28.7 44.3-72.7 52.9c3.2-5.8 6.1-12 8.5-18.4 6.4-3.7 18.5-10.9 41.3-24.8 13.3-8.2 23.7-16.8 31.8-25-2.7 5.1-5.7 10.3-8.9 15.3z"/><path class="e" d="m544.4 332c0.5 6.7 0.8 13.7 0.7 20.9-0.2 21.3-3.3 44.6-11.1 68.9-8.5 25.8-19.4 47.7-31 66-4.4 6.9-8.8 13.2-13.2 19.1-29.6 38.5-58.4 56.1-59.1 56.5 4.5-5.6 8.6-11.4 12.1-17.3 9.1-9.8 20.2-23.2 31.7-40.4v-0.1c6.1-9.2 12.3-19.6 18.3-31.1q0.1-0.2 0.2-0.4c3.3-6.2 6.5-12.9 9.6-19.8 4.3-9.9 8.5-20.4 12.3-31.6 6.2-18.5 10-35.5 12.2-50.9 1.8-13.1 2.4-25 2.3-35.7-0.3-22.5-3.9-39.8-7.3-51.1q1.2-23.9-1.6-45.2 19.9 37.4 23.9 92.2z"/><path class="c" d="m251.8 357.1q-10.2 8.1-41.3 7.1l7.1-7c-0.6 0.1-20.1 6.1-39.3 7.1-19 1-37.4-4-38.5-4.2l20.7 11.4q-12.2-0.4-24.4-3.9c-7.9-2.3-15.7-5.9-20.2-11.5-7.1-9.1-6.6-24.6-5.3-34.8q0.8-5.9 1.8-10 0.4 3.4 1.4 8.1c1.6 7 4.6 17 10.1 22.5-0.2-0.6-3.3-11.9-5.6-25-1.7-9.7-2.9-20.4-2.2-28.3 1.4-17.7-8.6-18.4-10.2-18.4l11.7-0.8q3.8 23.7 13.2 42.5 1.5 2.9 3.2 5.7c2 3.3 4.3 6.3 6.7 8.8-0.2-0.6-2.6-7-4.4-15.7q-0.6-2.9-1.1-6.1 0 0 0 0c-1.4-8.6-1.9-18.5 0.3-27.3q1.6 0.4 4.3 1.3c8.6 2.9 27.8 10.3 37 21.6q12.2 14.9 22.9 33.8l-1.2-9.7 8.8 8.6-6.5-16.8c0.5 0.6 16.8 19.1 22.3 21 5.1 1.7 7.8-10.1 8.2-12.3-0.3 2.2-2.2 14.6 3.1 20.2 3.2 3.4 8 6.6 11.7 8.9q3.3 2 5.7 3.2z"/><path class="f" d="m113.8 319.4q-1.6 0.9-3.2 1.9 0.8-5.9 1.8-10 0.4 3.4 1.4 8.1z"/><path class="f" d="m130.8 311.9c-4.4 1.2-8.6 2.9-12.5 5-1.7-9.7-2.9-20.4-2.2-28.3 1.4-17.7-8.6-18.4-10.2-18.4l11.7-0.8q3.8 23.7 13.2 42.5z"/><path class="f" d="m246.1 353.9c-8.6-2.4-20.1-5.7-32.4-9.8-24.9-8.2-35-26.8-35.6-28l6.3 17.6c-0.7-0.8-25.4-26.5-48.1-23q-0.6-2.9-1.1-6.1 0 0 0 0c-1.4-8.6-1.9-18.5 0.3-27.3q1.6 0.4 4.3 1.3c8.6 2.9 27.8 10.3 37 21.6q12.2 14.9 22.9 33.8l-1.2-9.7 8.8 8.6-6.5-16.8c0.5 0.6 16.8 19.1 22.3 21 5.1 1.7 7.8-10.1 8.2-12.3-0.3 2.2-2.2 14.6 3.1 20.2 3.2 3.4 8 6.6 11.7 8.9z"/><path class="g" d="m191.2 340.1l-2.5-6.4 33.6 18.9q-50.3 15.5-70.2 2-19.7-13.4-13.8-39.8 17.8-0.9 52.9 25.3z"/><path class="c" d="m327.6 343.1l4-28.5 7.7 19.3 26.7-24.3-0.4 11.8h2.6q19.6-30.9 42.6-43.7 22.8-12.8 57.7-9.6h2.7l-15 9.2-4.6 3.5q3.4 23.5 4.4 42.3 0.1 3.2 0.2 6.2c0.4 19.3-7 34.5-28.2 41.1q-21.3 6.6-29.5 3.6l8.4-9-34.3 3.6q-30.1 0-42.6-2.6c-10.3-2.1-20.6-7.2-23.9-9q-0.8-0.4-1.2-0.6z"/><path class="h" d="m425 314.8q5.5 26.4-14.5 39.8-20.1 13.5-70.1-2l33.9-18.9-2.6 6.4q35.5-26.2 53.3-25.3z"/><path class="f" d="m327.6 343.1l4-28.5 7.7 19.3 26.7-24.3-0.4 11.8h2.6q19.6-30.9 42.6-43.7 22.8-12.8 57.7-9.6h2.7l-15 9.2-4.6 3.5q3.4 23.5 4.4 42.3c-7.6-5.3-17.4-10.7-28.1-12.4q-23-3.6-48.6 23l6.6-17.6c-0.6 1.1-11 19.8-36 28-19.2 6.3-36.3 10.9-43.8 12.9q-0.8-0.4-1.2-0.6z"/><path class="a" d="m113 278.1l-3 24.1q-6 42.8 6.5 57.9 12.7 15.1 43.4 14.5-48.6 6.6-59.9-10.7-11.2-17.3-4.6-45.3-4.5 11.5-5 23.7-6.7-37.8 9.3-69z"/><path class="a" d="m258.5 356.4l-12.9-7.6-5.7-3.4-3.9-2.3-3.6-23.9-7.9 14.7-26.4-24.3 0.3 11.8h-2.7q0-0.1 0-0.1-0.1-0.1-0.2-0.4-0.1-0.2-0.3-0.4c-0.9-1.4-2.8-4.3-5.6-8.1q-0.6-0.7-1.2-1.5c-6.5-8.6-16.9-20.8-30.2-30.4q-0.4-0.4-0.8-0.7-0.2-0.1-0.3-0.2-0.1 0-0.1 0c-3.6-2.6-7.7-4.6-12-6.1q-1.8-0.7-3.6-1.2c-3.4-1-6.8-1.8-10.3-2.4-14.8-2.5-29.4-1.5-35.9-0.9q-2.2 0.3-3.5 0.4l-6.5-0.1q0.1-0.1 0.4-0.2c2.2-1.6 14.8-9.9 37.8-10.3q3.7 0 7.8 0.2 2.3 0.1 4.6 0.4 4.7 0.4 8.9 1.5 1.7 0.4 3.2 0.9c7.5 2.2 14.1 5.6 19.7 9.3q14.4 9.4 22.5 20.9l-2.3-15.1q6.7 17.7 20.1 28.1 2.4 1.9 5 3.3c2.7 1.5 5.2 2.6 7.3 3.2q2.1 0.6 3.8 0.8c3.4 0.4 5.8-0.3 7.3-1.3q2-1.2 2.7-2.7 0 0.2 0.1 0.6c0.9 2.7 4.8 14.8 10.1 26.3 3.2 7 7 13.8 10.8 18 1.1 1.3 2.3 2.4 3.5 3.2z"/><path class="a" d="m463.9 273.3q15.4 31.2 8.2 69-0.4-12.2-4.7-23.7 6.2 28-5.3 45.3-11.6 17.3-60.1 10.7 30.7 0.6 43.6-14.5 12.7-15.1 7.4-57.9l-2.5-24.1z"/><path class="a" d="m478.7 269.3l-2.3 0.1h-4.2q-1-0.1-2.7-0.3-0.2 0-0.3 0c-5.5-0.6-17.6-1.5-30.7 0h-0.1c-2.9 0.4-5.8 0.8-8.7 1.4q-1.9 0.4-3.7 0.8-2.6 0.7-5 1.5c-3.3 1-6.4 2.3-9.4 3.8q-2.7 1.5-5.2 3.2c-4.1 2.9-7.9 6-11.4 9.2q-17.1 15.3-27.7 32.4h-2.6l0.1-5.1 0.1-1.7 0.2-4.2v-0.8l-26.1 23.7-0.6 0.6-3.1-5.9-4.4-8.4-0.2-0.4-4.1 23.9-20.8 12.2-1.8 1.1q1.1-0.8 2.3-1.9 1.6-1.5 3.2-3.7 0.1 0 0.1 0 10.3-13.5 19.7-42.5 0.4 0.9 1.4 1.8c1.1 1 2.9 2.1 5.6 2.3q0.4 0 0.8 0 0.3 0 0.7 0c1.9 0 4.3-0.5 7-1.5q2.5-0.9 5.6-2.6 16.8-9.2 25.6-31.4l-2.5 15.1q7.5-10.4 20.7-19.5c8.6-6 19.6-11.3 32.6-13q0.1 0 0.3 0 0.5-0.1 1.1-0.1 3.3-0.4 6.3-0.5 3.1-0.1 6-0.1 0.9 0 1.9 0.1c12.5 0.4 21.8 3.2 27.9 5.8q5.6 2.4 8.4 4.6z"/><path class="a" d="m296.3 569.1c-4.8 0.3-8.9 0.1-11.4-0.2-1.4-0.2-2.7-0.3-3.9-0.3-1.3 0-2.5 0.1-3.9 0.3-3.1 0.3-8.6 0.5-14.8-0.1q2.8-0.5 5.5-1.3c3.9-1.1 7.5-2.7 10.8-4.7 3.2 2 6.8 3.6 10.7 4.7 2.3 0.7 4.6 1.2 7 1.6z"/><path class="a" d="m484.2 297.9q0 3.3 0 6.7c-0.2-2.2-0.5-4.3-0.8-6.3zm-10.8-59.2c-0.9-0.3-2-0.5-3-0.8q-0.1-0.9-0.2-1.8c1.1 0.8 2.2 1.7 3.2 2.6zm-62.1 165.2q-0.4 0.6-0.7 1.2-0.1-0.6-0.2-1.1c0.3-0.1 0.6-0.1 0.9-0.1zm-257.7 0.2c-1.4 0.4-2.8 1-4.1 1.6-0.4-0.6-0.7-1.2-1-1.8q2.6 0.2 5.1 0.2zm-56.9-168q-0.1 0.5-0.1 1c-0.5 0.1-1 0.2-1.5 0.2q0.8-0.6 1.6-1.2z"/><path class="a" d="m259.6 155.1c-4.3-1.2-7.6-4.4-9-8.6-0.8-2.4-17.6-59.4 13.9-108.4 3.2-5.1 9.3-7.4 14.7-5.5 5.5 2 9 7.6 8.6 13.7-0.6 8.4-1.5 33.2 1.4 46.4 4.9 22.4-11.2 50.8-14.5 56.3-2.7 4.5-7.8 7.1-13 6.5q-1.1-0.1-2.1-0.4z"/><path fill-rule="evenodd" class="a" d="m286.8 166.8c-2.8-0.8-5.3-2.4-7.1-4.7-2.9-3.8-3.5-8.8-1.8-13.2q-0.2 0.1-0.4 0.1c-6.8 1.6-13.6-2.2-15.6-8.9-1.9-6 0.7-12.5 6-15.7 1.1-1.3 6.9-9.5 4.9-37-1.6-22.6 1.7-41.8 9.7-57.3 6.8-13.4 17.2-23.7 29.2-28.8 5.2-2.2 11.2-0.5 14.7 4.3 2.8 4 3.4 9.2 1.6 13.6 1 1.3 1.8 2.7 2.4 4.4 0 0.2 5.1 16 10.6 28.9 1.9-4.2 5.9-7.2 10.7-7.5 6.8-0.4 12.9 5 13.7 12.2 0.2 1.9 5.1 47.1-27.9 78.1-21 19.2-36.6 30.2-44.7 31.7-2 0.4-4.1 0.3-6-0.2zm-17.3-43.2q0 0 0 0 0 0 0 0zm0-0.1q0 0.1 0 0.1 0 0 0-0.1zm0 0q0 0 0 0 0 0 0 0zm0 0q0 0 0 0 0 0 0 0z"/><path class="i" d="m263.3 142.1q-0.1-0.5-0.4-1.6c-2.5-9-13.1-55.5 12.2-95.1q-0.2 2.3-0.4 5.9c-0.5 10.1-1.1 31.1 1.7 44.5q3.9 18.1-13.1 46.3z"/><path class="i" d="m333.1 120.5q-2.1 2.5-4.7 4.8-29.4 26.9-38 28.5 13.3-28.7 19.6-50.1-8.2 25.7-35.4 32.2c0.6-0.3 14.5-7.2 11.2-49.7-3.1-40.6 11.7-62.3 27.3-70.8q1.7-0.9 3.3-1.6-11.5 16.7-9.8 38.6 1.8 21.9-5 48.9 7.2-15.7 9.8-33.6 0.4-3.3 0.7-6.6 1.4-20.5 6.3-33.3 0.6 1.9 1.6 4.9c2.6 7.8 8 23.3 13 33.5q7.1 14.2-22.1 54.7 23.9-17.5 33-37.2 8.9-19.7 8.7-25.3 4 35.6-19.5 62.1z"/><path class="j" d="m274.7 51.3q0.2-3.6 0.4-5.9c-25.3 39.6-14.7 86.1-12.2 95.1 3.1-9.6 8.2-29.6 6.4-51.6-1.5-18 2.2-30.4 5.4-37.6z"/><path class="j" d="m333.1 120.5q-2.1 2.5-4.7 4.8-29.4 26.9-38 28.5 13.3-28.7 19.6-50.1-8.2 25.7-35.4 32.2c0.6-0.3 14.5-7.2 11.2-49.7-3.1-40.6 11.7-62.3 27.3-70.8-7.8 13.5-18.1 34.4-16.8 50.6 2.1 26.1 3 41.3-4.8 53.1-8 11.7 9.3 0.3 16.8-24.5 3-9.9 3.3-18.8 3.1-26.9-0.5-12.3-2.3-22.9 1.3-32.5q5.9-15.8 9.9-16.9-1.7 5.7-2.6 14.4c-0.8 7.8-1.1 18.1 0.9 28.9q4.2 23-19 77.7z"/><path class="a" d="m304 496.5q9.5 14.8 17.1 15.3l-18.4 17.1-25.8-18.1q-14.1 17.4-22.5 18.1-8.5 0.7-23.9-13.2 4.1-6.8 12-10 8-3.3 34.4-47 17.6 23 27.1 37.8z"/><path class="a" d="m289 140.5l-0.5 18 30.4-9.7 8.8 16.9q0 0-15 3.3-15.1 3.3-25.9-2.2l-44.2-8.3 2.8-18 14.7 8.3 26.6-6.7"/></svg>